<svg width="156" height="57" viewBox="0 0 156 57" fill="none" xmlns="http://www.w3.org/2000/svg">
<path fill-rule="evenodd" clip-rule="evenodd" d="M155.154 23.6661V-4.62468e-05L0.862085 -4.62468e-05V56.1067L119.562 56.1067L155.154 23.6661Z" fill="#2AA6FF"/>
<path fill-rule="evenodd" clip-rule="evenodd" d="M155.155 23.9484H125.004C122.162 23.9484 119.859 26.252 119.859 29.0936V56.1063L155.155 23.9484Z" fill="white" fill-opacity="0.5"/>
<path d="M38.682 34.3318C36.9487 34.3318 35.5753 33.8518 34.562 32.8918C33.5487 31.9184 33.042 30.5318 33.042 28.7318V25.3718C33.042 23.5718 33.5487 22.1918 34.562 21.2318C35.5753 20.2584 36.9487 19.7718 38.682 19.7718C40.402 19.7718 41.7287 20.2451 42.662 21.1918C43.6087 22.1251 44.082 23.4118 44.082 25.0518V25.1718H41.482V24.9718C41.482 24.1451 41.2487 23.4651 40.782 22.9318C40.3287 22.3984 39.6287 22.1318 38.682 22.1318C37.7487 22.1318 37.0153 22.4184 36.482 22.9918C35.9487 23.5651 35.682 24.3451 35.682 25.3318V28.7718C35.682 29.7451 35.9487 30.5251 36.482 31.1118C37.0153 31.6851 37.7487 31.9718 38.682 31.9718C39.6287 31.9718 40.3287 31.7051 40.782 31.1718C41.2487 30.6251 41.482 29.9451 41.482 29.1318V28.7718H44.082V29.0518C44.082 30.6918 43.6087 31.9851 42.662 32.9318C41.7287 33.8651 40.402 34.3318 38.682 34.3318ZM45.3131 34.0518V20.0518H47.8331V25.3518H48.1931C48.2998 25.1384 48.4664 24.9251 48.6931 24.7118C48.9198 24.4984 49.2198 24.3251 49.5931 24.1918C49.9798 24.0451 50.4664 23.9718 51.0531 23.9718C51.8264 23.9718 52.4998 24.1518 53.0731 24.5118C53.6598 24.8584 54.1131 25.3451 54.4331 25.9718C54.7531 26.5851 54.9131 27.3051 54.9131 28.1318V34.0518H52.3931V28.3318C52.3931 27.5851 52.2064 27.0251 51.8331 26.6518C51.4731 26.2784 50.9531 26.0918 50.2731 26.0918C49.4998 26.0918 48.8998 26.3518 48.4731 26.8718C48.0464 27.3784 47.8331 28.0918 47.8331 29.0118V34.0518H45.3131ZM61.1573 34.3318C60.1706 34.3318 59.2973 34.1251 58.5373 33.7118C57.7906 33.2851 57.204 32.6918 56.7773 31.9318C56.364 31.1584 56.1573 30.2518 56.1573 29.2118V28.9718C56.1573 27.9318 56.364 27.0318 56.7773 26.2718C57.1906 25.4984 57.7706 24.9051 58.5173 24.4918C59.264 24.0651 60.1306 23.8518 61.1173 23.8518C62.0906 23.8518 62.9373 24.0718 63.6573 24.5118C64.3773 24.9384 64.9373 25.5384 65.3373 26.3118C65.7373 27.0718 65.9373 27.9584 65.9373 28.9718V29.8318H58.7173C58.744 30.5118 58.9973 31.0651 59.4773 31.4918C59.9573 31.9184 60.544 32.1318 61.2373 32.1318C61.944 32.1318 62.464 31.9784 62.7973 31.6718C63.1306 31.3651 63.384 31.0251 63.5573 30.6518L65.6173 31.7318C65.4306 32.0784 65.1573 32.4584 64.7973 32.8718C64.4506 33.2718 63.984 33.6184 63.3973 33.9118C62.8106 34.1918 62.064 34.3318 61.1573 34.3318ZM58.7373 27.9518H63.3773C63.324 27.3784 63.0906 26.9184 62.6773 26.5718C62.2773 26.2251 61.7506 26.0518 61.0973 26.0518C60.4173 26.0518 59.8773 26.2251 59.4773 26.5718C59.0773 26.9184 58.8306 27.3784 58.7373 27.9518ZM71.8403 34.3318C70.8803 34.3318 70.0069 34.1318 69.2203 33.7318C68.4469 33.3318 67.8336 32.7518 67.3803 31.9918C66.9269 31.2318 66.7003 30.3118 66.7003 29.2318V28.9518C66.7003 27.8718 66.9269 26.9518 67.3803 26.1918C67.8336 25.4318 68.4469 24.8518 69.2203 24.4518C70.0069 24.0518 70.8803 23.8518 71.8403 23.8518C72.7869 23.8518 73.6003 24.0184 74.2803 24.3518C74.9603 24.6851 75.5069 25.1451 75.9203 25.7318C76.3469 26.3051 76.6269 26.9584 76.7603 27.6918L74.3203 28.2118C74.2669 27.8118 74.1469 27.4518 73.9603 27.1318C73.7736 26.8118 73.5069 26.5584 73.1603 26.3718C72.8269 26.1851 72.4069 26.0918 71.9003 26.0918C71.3936 26.0918 70.9336 26.2051 70.5203 26.4318C70.1203 26.6451 69.8003 26.9718 69.5603 27.4118C69.3336 27.8384 69.2203 28.3651 69.2203 28.9918V29.1918C69.2203 29.8184 69.3336 30.3518 69.5603 30.7918C69.8003 31.2184 70.1203 31.5451 70.5203 31.7718C70.9336 31.9851 71.3936 32.0918 71.9003 32.0918C72.6603 32.0918 73.2336 31.8984 73.6203 31.5118C74.0203 31.1118 74.2736 30.5918 74.3803 29.9518L76.8203 30.5318C76.6469 31.2384 76.3469 31.8851 75.9203 32.4718C75.5069 33.0451 74.9603 33.4984 74.2803 33.8318C73.6003 34.1651 72.7869 34.3318 71.8403 34.3318ZM77.899 34.0518V20.0518H80.419V27.7918H80.779L84.059 24.1318H87.339L82.759 28.9318L87.499 34.0518H84.259L80.779 30.1118H80.419V34.0518H77.899ZM92.1862 34.0518V20.0518H94.8262V34.0518H92.1862ZM96.5396 34.0518V24.1318H99.0196V25.4318H99.3796C99.5396 25.0851 99.8396 24.7584 100.28 24.4518C100.72 24.1318 101.386 23.9718 102.28 23.9718C103.053 23.9718 103.726 24.1518 104.3 24.5118C104.886 24.8584 105.34 25.3451 105.66 25.9718C105.98 26.5851 106.14 27.3051 106.14 28.1318V34.0518H103.62V28.3318C103.62 27.5851 103.433 27.0251 103.06 26.6518C102.7 26.2784 102.18 26.0918 101.5 26.0918C100.726 26.0918 100.126 26.3518 99.6996 26.8718C99.273 27.3784 99.0596 28.0918 99.0596 29.0118V34.0518H96.5396Z" fill="white"/>
</svg>
